<svg width="300" height="289" viewBox="0 0 300 289" fill="none" xmlns="http://www.w3.org/2000/svg">
<path d="M119.128 209.831H83.0307C80.8031 209.831 78.9952 211.639 78.9952 213.867V246.571C78.9952 247.955 79.7054 249.242 80.8757 249.981L98.9266 261.385C99.5844 261.801 100.335 262.011 101.082 262.011C101.828 262.011 102.579 261.801 103.236 261.385L121.287 249.981C122.458 249.242 123.168 247.955 123.168 246.571V213.867C123.164 211.639 121.356 209.831 119.128 209.831ZM115.093 244.347L101.077 253.201L87.0622 244.347V217.902H115.089V244.347H115.093ZM92.05 109.387C95.7829 142.963 122.373 158.096 140.448 158.096C158.523 158.096 185.109 142.963 188.846 109.387C194.225 106.555 201.477 99.5126 201.11 86.9985C201.037 84.5812 200.823 77.2365 195.436 75.1986C190.137 73.193 184.79 78.5037 183.769 79.5892C182.248 81.2196 182.333 83.7741 183.959 85.2955C185.585 86.8169 188.144 86.7361 189.665 85.1058C190.371 84.3512 191.61 83.3947 192.433 83.0033C192.659 83.6127 192.974 84.8677 193.043 87.2406C193.386 98.9072 184.859 102.41 184.011 102.729L168.297 106.171C149.81 104.182 131.086 104.182 112.603 106.171L96.8604 102.725C95.6699 102.257 87.5182 98.6328 87.8531 87.2446C87.9217 84.8717 88.2365 83.6167 88.4625 83.0073C89.2373 83.3786 90.4237 84.2624 91.2308 85.1098C92.7522 86.7361 95.3067 86.8169 96.9371 85.2995C98.5634 83.7781 98.6481 81.2236 97.1267 79.5933C96.1098 78.5077 90.7829 73.1809 85.4601 75.2027C80.0726 77.2365 79.8547 84.5852 79.7861 87.0025C79.4149 99.5166 86.6707 106.559 92.05 109.387ZM100.565 111.793L108.628 113.56L111.005 135.106C106.114 129.371 102.224 121.724 100.565 111.793ZM169.883 135.102L172.26 113.556L180.323 111.789C178.664 121.724 174.774 129.371 169.883 135.102ZM164.112 113.835L160.904 142.882C160.896 142.951 160.924 143.011 160.92 143.076C153.515 148.019 145.682 150.025 140.444 150.025C135.214 150.025 127.401 148.023 120.008 143.1L116.78 113.835C132.498 112.358 148.386 112.358 164.112 113.835ZM118.797 167.132L107.086 172.628L106.057 153.839C105.936 151.611 104.003 149.9 101.808 150.029C99.5844 150.15 97.8773 152.055 97.9984 154.279L98.2123 158.201C84.3785 163.197 71.8321 172.265 62.385 183.899C61.8321 180.659 60.6578 177.555 58.1154 174.997C57.0864 173.96 55.8354 173.116 54.4633 172.382V141.914C55.5892 142.233 56.8281 142.785 57.9379 143.762C60.6417 146.131 62.0097 150.34 62.0097 156.276V169.061C62.0097 171.288 63.8176 173.096 66.0452 173.096C68.2728 173.096 70.0807 171.288 70.0807 169.061V156.28C70.0807 147.919 67.7845 141.668 63.2567 137.701C60.3188 135.126 57.0258 134.081 54.4391 133.681C54.3745 131.51 52.615 129.763 50.4278 129.763H4.03551C1.80791 129.763 0 131.571 0 133.798V146.058C0 148.286 1.80791 150.094 4.03551 150.094H16.5052C17.0702 156.05 19.0557 167.091 25.908 173.245C25.0969 173.79 24.2857 174.331 23.6158 175.005C18.7974 179.852 18.8337 186.651 18.866 192.648L18.8701 220.655C18.8701 228.04 22.5383 234.569 28.1396 238.56C25.8071 242.071 23.5069 245.029 23.519 245.029C11.3156 258.354 12.6312 284.089 12.6917 285.178C12.8128 287.313 14.5803 288.984 16.7232 288.984H69.7135C71.8523 288.984 73.6199 287.313 73.745 285.178C73.8055 284.089 75.1211 258.35 63.0024 245.126C62.958 245.074 59.1889 240.638 56.3801 236.232C60.3834 232.249 62.8612 226.736 62.8612 220.655L62.8652 197.087C71.1945 183.407 84.0799 172.539 98.6764 166.68L99.3543 179.048C99.427 180.388 100.161 181.603 101.312 182.293C101.949 182.672 102.663 182.866 103.382 182.866C103.967 182.866 104.552 182.741 105.097 182.483L122.228 174.444C124.245 173.496 125.113 171.094 124.165 169.077C123.216 167.051 120.811 166.191 118.797 167.132ZM8.07103 137.83H12.6312V142.023H8.07103V137.83ZM37.8975 169.618C24.6207 169.618 24.3503 146.276 24.3503 146.042C24.3341 143.96 22.732 142.305 20.7022 142.099V137.826H46.3923V169.622L40.8999 169.618C40.8878 169.618 40.8757 169.618 40.8636 169.618C40.8515 169.618 40.8434 169.618 40.8313 169.618H37.8975ZM26.937 192.604C26.9128 187.749 26.8846 183.161 29.3382 180.695C31.3156 178.705 35.1816 177.697 40.8192 177.693H40.9161C46.5537 177.701 50.4197 178.705 52.3931 180.695C54.0315 182.346 54.5561 184.948 54.7216 187.939H45.339C43.1114 187.939 41.3035 189.747 41.3035 191.974C41.3035 194.202 43.1114 196.01 45.339 196.01H54.7942V203.358H45.339C43.1114 203.358 41.3035 205.166 41.3035 207.394C41.3035 209.622 43.1114 211.429 45.339 211.429H54.7902V218.241H45.339C43.1114 218.241 41.3035 220.049 41.3035 222.277C41.3035 224.505 43.1114 226.312 45.339 226.312H53.5593C51.3842 231.171 46.5254 234.573 40.8676 234.573C33.1921 234.573 26.9451 228.326 26.9451 220.651L26.937 192.604ZM20.7143 280.913C20.7425 279.327 20.8394 277.293 21.0331 275.057H65.4036C65.5973 277.289 65.6901 279.327 65.7183 280.913H20.7143ZM56.9613 250.473C60.8919 254.763 63.0509 260.998 64.2575 266.982H22.1994C23.4302 260.953 25.6416 254.646 29.6731 250.239C29.8224 250.049 32.7684 246.28 35.5488 241.97C37.2559 242.394 39.0274 242.648 40.8636 242.648C44.0113 242.648 46.9976 241.974 49.7054 240.776C52.8208 245.614 56.6868 250.158 56.9613 250.473ZM85.5529 62.3374V66.5586C85.5529 68.7862 87.3608 70.5941 89.5884 70.5941C91.816 70.5941 93.6239 68.7862 93.6239 66.5586V61.0299C105.71 56.26 123.208 51.716 140.444 51.716C157.68 51.716 175.178 56.26 187.264 61.0299V66.5586C187.264 68.7862 189.072 70.5941 191.299 70.5941C193.527 70.5941 195.335 68.7862 195.335 66.5586V62.3374C196.408 61.5868 197.062 60.3641 197.062 59.0485V15.8726C197.062 14.2785 196.126 12.8338 194.665 12.1841C181.929 6.51824 160.997 0.464966 140.444 0.464966C119.887 0.464966 98.9548 6.51824 86.2228 12.1841C84.7659 12.8338 83.8257 14.2785 83.8257 15.8726V59.0445C83.8257 60.36 84.4835 61.5828 85.5529 62.3374ZM91.8967 18.536C103.999 13.5279 122.389 8.54003 140.444 8.54003C158.499 8.54003 176.885 13.5279 188.991 18.536V53.0235C176.203 48.1486 158.18 43.6409 140.444 43.6409C122.704 43.6409 104.689 48.1486 91.8967 53.0235V18.536ZM295.965 127.656H194.149C191.921 127.656 190.113 129.464 190.113 131.692V145.909C190.113 148.136 191.921 149.944 194.149 149.944H203.571L242.801 177.854V215.893C236.037 216.216 231.045 217.886 227.809 221.143C222.99 225.99 223.027 232.789 223.059 238.786L223.063 266.793C223.063 278.919 232.93 288.786 245.057 288.786C257.183 288.786 267.05 278.919 267.05 266.793L267.054 238.786C267.086 232.789 267.123 225.99 262.304 221.143C259.649 218.471 255.868 216.833 250.872 216.143V177.741C267.958 164.392 282.615 153.052 286.63 149.944H295.965C298.192 149.944 300 148.136 300 145.909V131.692C300 129.46 298.192 127.656 295.965 127.656ZM258.983 238.746L258.979 266.797C258.979 274.472 252.732 280.719 245.057 280.719C239.399 280.719 234.54 277.313 232.365 272.458H240.585C242.813 272.458 244.621 270.651 244.621 268.423C244.621 266.195 242.813 264.387 240.585 264.387H231.134V257.576H240.585C242.813 257.576 244.621 255.768 244.621 253.54C244.621 251.312 242.813 249.505 240.585 249.505H231.13V242.156H240.585C242.813 242.156 244.621 240.348 244.621 238.12C244.621 235.893 242.813 234.085 240.585 234.085H231.203C231.368 231.094 231.893 228.492 233.531 226.841C235.513 224.848 239.395 223.835 245.057 223.835C250.718 223.835 254.601 224.843 256.582 226.841C259.036 229.303 259.011 233.887 258.983 238.746ZM291.929 141.873H285.254C284.362 141.873 283.495 142.168 282.789 142.713C282.789 142.713 266.489 155.3 246.723 170.735L207.199 142.616C206.517 142.132 205.698 141.869 204.859 141.869H198.184V135.727H291.929V141.873ZM181.691 166.082L180.981 179.044C180.908 180.384 180.174 181.599 179.023 182.289C178.386 182.668 177.672 182.862 176.953 182.862C176.368 182.862 175.783 182.737 175.238 182.479L158.107 174.44C156.09 173.492 155.222 171.09 156.17 169.073C157.115 167.051 159.524 166.187 161.538 167.136L173.249 172.632L174.278 153.843C174.399 151.615 176.303 149.912 178.527 150.033C180.751 150.154 182.458 152.059 182.337 154.283L182.151 157.652C205.581 165.574 225.044 184.872 232.966 208.064C233.688 210.17 232.559 212.467 230.452 213.189C230.02 213.338 229.58 213.407 229.149 213.407C227.47 213.407 225.904 212.35 225.331 210.675C218.438 190.509 201.836 173.637 181.691 166.082ZM144.479 185.392V284.02C144.479 286.248 142.672 288.056 140.444 288.056C138.216 288.056 136.408 286.248 136.408 284.02V185.392C136.408 183.165 138.216 181.357 140.444 181.357C142.672 181.357 144.479 183.165 144.479 185.392ZM196.63 115.99H293.483C295.71 115.99 297.518 117.797 297.518 120.025C297.518 122.253 295.71 124.061 293.483 124.061H196.63C194.403 124.061 192.595 122.253 192.595 120.025C192.595 117.797 194.399 115.99 196.63 115.99Z" fill="#DBFF00" fill-opacity="0.6"/>
</svg>
