<svg width="300" height="300" viewBox="0 0 300 300" fill="none" xmlns="http://www.w3.org/2000/svg">
<g clip-path="url(#clip0_30_167)">
<path d="M298.982 135.001C297.515 133.359 294.999 133.236 293.368 134.699L285.568 141.701L243.266 99.7561C241.707 98.2135 239.195 98.2175 237.644 99.78C236.097 101.339 236.105 103.855 237.668 105.402L279.644 147.02L258.863 165.671L189.748 95.6651L258.449 30.6731C260.043 29.1623 260.115 26.6456 258.604 25.0513C257.09 23.4531 254.577 23.3934 252.983 24.8923L181.331 92.6793C180.556 93.4148 180.107 94.4286 180.087 95.4981C180.067 96.5676 180.484 97.5973 181.232 98.3606L187.597 104.809L173.574 119.48L146.527 116.598C145.33 116.454 144.158 116.884 143.307 117.727L132.314 128.624L111.878 108.439L118.764 101.466C119.512 100.706 119.929 99.6727 119.909 98.6032C119.889 97.5337 119.444 96.5199 118.665 95.7843L47.0175 28.0014C45.4272 26.4985 42.9066 26.5582 41.3958 28.1604C39.885 29.7547 39.9565 32.2714 41.5508 33.7821L89.9002 79.5155L19.0956 148.992L6.63159 137.808C5.00152 136.345 2.48486 136.476 1.0178 138.11C-0.449265 139.744 -0.314089 142.257 1.31995 143.724L38.6485 177.228C39.4039 177.908 40.3581 178.246 41.3043 178.246C42.334 178.246 43.3598 177.848 44.1351 177.065L50.8979 170.215L88.0753 206.883L81.2449 213.829C79.7143 215.388 79.7222 217.884 81.2688 219.427L95.2079 233.366L95.2158 233.374L95.2238 233.382L109.167 247.166L123.09 261.093L137.029 275.032C137.804 275.807 138.822 276.197 139.84 276.197C140.858 276.197 141.876 275.807 142.651 275.032L149.863 267.82L157.194 275.052C157.965 275.815 158.975 276.197 159.985 276.197C161.003 276.197 162.021 275.807 162.796 275.032L173.924 263.904L175.566 265.546C176.342 266.321 177.359 266.711 178.377 266.711C179.395 266.711 180.413 266.321 181.188 265.546L192.316 254.418L193.958 256.06C194.733 256.835 195.751 257.225 196.769 257.225C197.787 257.225 198.805 256.835 199.58 256.06L210.708 244.932L212.346 246.57C213.121 247.345 214.139 247.734 215.157 247.734C216.175 247.734 217.193 247.345 217.968 246.57L231.907 232.631C233.461 231.076 233.461 228.563 231.907 227.009L211.209 206.311L248.617 166.621L255.869 173.968C256.644 174.755 257.67 175.149 258.7 175.149C259.646 175.149 260.6 174.811 261.355 174.131L298.684 140.627C300.314 139.148 300.449 136.635 298.982 135.001ZM97.9035 137.216C97.9035 146.809 90.099 154.61 80.5094 154.61C76.6927 154.61 73.027 153.354 70.0372 151.095L94.3889 126.74C96.6471 129.733 97.9035 133.399 97.9035 137.216ZM100.027 121.102L106.662 114.467L110.248 118.009L102.941 125.491C102.13 123.937 101.156 122.466 100.027 121.102ZM41.1373 168.776L25.0235 154.312L95.681 84.9822L110.256 98.7702L41.1373 168.776ZM64.3996 156.733C65.807 157.898 67.3258 158.896 68.9399 159.727C67.6796 161.023 66.3795 162.371 65.0715 163.722C63.4891 165.356 61.9465 166.943 60.4556 168.473L56.5315 164.605L64.3996 156.733ZM93.7368 212.461L102.094 220.703L97.9869 224.898L89.6776 216.588L93.7368 212.461ZM111.942 238.729L103.637 230.519L107.783 226.317L116.124 234.543L111.942 238.729ZM121.786 240.129L130.159 248.387L125.893 252.653L117.576 244.335L121.786 240.129ZM139.836 266.592L131.519 258.274L135.824 253.969L144.197 262.23L139.836 266.592ZM215.153 238.125L213.515 236.487L197.465 220.437L197.461 220.433L192.583 215.555C191.028 214 188.515 214 186.961 215.555C185.406 217.109 185.406 219.622 186.961 221.176L205.086 239.298L196.769 247.615L174.195 225.041C172.64 223.486 170.127 223.486 168.573 225.041C167.018 226.595 167.018 229.108 168.573 230.662L173.459 235.549L186.694 248.788L178.377 257.105L165.325 244.057L160.685 239.417L160.681 239.413L155.803 234.535C154.248 232.98 151.735 232.98 150.181 234.535C148.626 236.089 148.626 238.602 150.181 240.157L159.305 249.281L168.303 258.278L159.965 266.615L66.1171 174.055C67.6239 172.509 69.1864 170.899 70.7807 169.249C73.1224 166.831 75.4284 164.45 77.4799 162.367C78.4818 162.486 79.4877 162.561 80.5094 162.561C94.4883 162.561 105.855 151.191 105.855 137.216C105.855 136.17 105.775 135.137 105.648 134.111L115.91 123.599L126.672 134.226L89.1408 171.443C88.3338 172.242 87.9084 173.348 87.972 174.485C88.0356 175.622 88.5763 176.671 89.4669 177.379C90.3932 178.123 112.165 194.61 149.966 156.3L223.47 229.808L215.153 238.125ZM205.579 200.677L152.721 147.815C151.962 147.056 151.02 146.635 149.847 146.65C148.77 146.666 147.752 147.12 147.012 147.903C122.625 173.853 106.288 174.64 98.9212 172.938L147.561 124.704L166.633 126.736L163.77 129.733C162.251 131.32 162.311 133.836 163.893 135.355C165.48 136.87 167.992 136.818 169.515 135.228L192.368 111.322L242.522 161.476L205.579 200.677ZM212.533 86.5367C212.533 93.387 218.107 98.961 224.957 98.961C231.808 98.961 237.382 93.387 237.382 86.5367C237.382 79.6864 231.808 74.1124 224.957 74.1124C218.107 74.1124 212.533 79.6864 212.533 86.5367ZM229.43 86.5367C229.43 89.0017 227.422 91.0094 224.957 91.0094C222.492 91.0094 220.485 89.0017 220.485 86.5367C220.485 84.0717 222.492 82.064 224.957 82.064C227.422 82.064 229.43 84.0717 229.43 86.5367Z" fill="#DBFF00" fill-opacity="0.6"/>
</g>
<defs>
<clipPath id="clip0_30_167">
<rect width="300" height="300" fill="white"/>
</clipPath>
</defs>
</svg>
